<svg xmlns="http://www.w3.org/2000/svg" version="1.1" xmlns:xlink="http://www.w3.org/1999/xlink" viewBox="0 0 11.116038637678724 3.6113146386552883"><g transform="matrix(0.7463561894588465,0,0,0.7463561894588465,3.9456329045132246,1.0739576995392959)"><g transform="matrix(1,0,0,1,0,0)" clip-path="url(#SvgjsClipPath40998)"><g clip-path="url(#SvgjsClipPath409965cfc236d-367b-49a9-b15f-bd74f3df0afe)"><path d=" M -2.5158864084460832 -0.21165509948039374 L -0.6683540718854348 -0.21165509948039374 C -0.5204350799741362 -0.21123226985424579 -0.40062811099687945 -0.09142530087698786 -0.4002052813707295 0.05649369103430962 L -0.4002052813707295 1.9040260275949588 C -0.4006281109968808 2.0519450195062596 -0.5204350799741388 2.171751988483516 -0.6683540718854379 2.172174818109664 L -2.5158864084460832 2.172174818109664 C -2.6637937436741983 2.171723963882473 -2.783584344733598 2.0519333628230734 -2.784035198960787 1.9040260275949588 L -2.784035198960787 0.05649369103430962 C -2.7835843447336095 -0.09141364419378284 -2.6637937436742205 -0.2112042452531925 -2.515886408446105 -0.21165509948039374 Z M -2.4807832940514305 1.1351446535296361 L -2.1472010666168693 1.3137394460638316 C -1.911640693705386 1.4399874890621427 -2.007096531094353 1.7704904959357686 -2.242605583663153 1.6443450936228219 L -2.415093255418163 1.5519684767947894 C -2.5763417721257618 1.4655450197178967 -2.6418265293883008 1.6913545275197546 -2.481193856792888 1.7782398676807865 C -2.2921810346941967 1.8783658562538368 -2.068116418543537 1.8402348416409327 -1.9616267074778888 1.6476295955544855 L -1.7576796656586657 1.267037934222993 C -1.6316369040310839 1.0317854833676021 -1.3009286157867277 1.1266254766443828 -1.427125338442356 1.3624424512692777 L -1.6637634385501663 1.803797398336544 C -1.7499816142563303 1.96525119641487 -1.5233509809715564 2.030222750250587 -1.436978844237347 1.8689229132003056 L -1.2583327313604684 1.5356486078218388 C -1.1320846883621578 1.3000882349103553 -0.8015816814885306 1.39549275195664 -0.9277784041441597 1.6310531248681235 L -1.020155020972192 1.8035407966231327 C -1.1065784780490837 1.9647893133307308 -0.8807176499045453 2.0302740705932703 -0.7938836300861942 1.8696413979978574 C -0.6937576415131441 1.680628575899168 -0.7318373357833656 1.4565639597485065 -0.924442581869813 1.350022928340176 L -1.3050342432013062 1.1460758865209542 C -1.540286694056696 1.0200331248933723 -1.445446700779916 0.6893248366490154 -1.2096297261550224 0.8155215593046438 L -0.7682747790877569 1.0521596594124532 C -0.60682098100943 1.1384291554612993 -0.5418494271737129 0.9117985221765249 -0.703097943881311 0.825375065099634 L -1.0364235696024613 0.6467289522227554 C -1.2719839425139445 0.5205322295671272 -1.1765281051249776 0.18997790235081663 -0.9410190525561775 0.3162259453491282 L -0.7685313808011673 0.4086025621771622 C -0.6072828640935688 0.4950773395967364 -0.5417981068310298 0.2691651911095137 -0.7024307794264417 0.18238249163384684 C -0.8914436015251321 0.08220518271811506 -1.1155082176757933 0.12033619733101897 -1.2219979287414418 0.3129414434174663 L -1.4259449705606642 0.6935331047489605 C -1.551987732188246 0.9287855556043495 -1.8826960204326029 0.8339455623275686 -1.7564992977769738 0.5981285877026757 L -1.5198611976691634 0.1567736406354096 C -1.4336430219629996 -0.0046801574429183035 -1.6602736552477733 -0.06965171127863537 -1.7466457919819836 0.09164812577164616 L -1.9252919048588613 0.42492243115011463 C -2.051539947857172 0.6604828040615981 -2.382042954730799 0.5650782870153117 -2.25584623207517 0.3295179141038299 L -2.1634696152471387 0.1570815626915023 C -2.077046158170246 -0.00421827435877925 -2.3029069863147846 -0.0697030316213186 -2.3897410061331357 0.09092964097409428 C -2.4898669947061856 0.27994246307278553 -2.451787300435964 0.5040070792234469 -2.259182054349517 0.6105481106317776 L -1.8785903930180234 0.814495152450999 C -1.6433379421626337 0.9405379140785809 -1.7381779354394138 1.271246202322938 -1.9739949100643073 1.1450494796673079 L -2.4153498571315737 0.9084113795594985 C -2.5770602569233128 0.8220905631679706 -2.642031810759029 1.0487211964527434 -2.4807832940514305 1.1351446535296361 Z" fill="#ebebeb" transform="matrix(1,0,0,1,0,0)" fill-rule="evenodd"></path></g></g><g><path d=" M 0.801 0.016499999999999737 L 0.801 0.25049999999999983 L 0.378 0.25049999999999983 L 0.378 0.4364999999999998 L 0.6900000000000001 0.4364999999999998 L 0.6900000000000001 0.6599999999999998 L 0.378 0.6599999999999998 L 0.378 1.0739999999999998 L 0.084 1.0739999999999998 L 0.084 0.016499999999999737 L 0.801 0.016499999999999737 M 1.159461181640625 1.0147499999999998 Q 1.034961181640625 0.9449999999999998 0.962211181640625 0.8212499999999998 Q 0.889461181640625 0.6974999999999998 0.889461181640625 0.5414999999999999 Q 0.889461181640625 0.38549999999999984 0.962211181640625 0.2617499999999998 Q 1.034961181640625 0.1379999999999998 1.159461181640625 0.06899999999999973 Q 1.283961181640625 -2.220446049250313e-16 1.432461181640625 -2.220446049250313e-16 Q 1.582461181640625 -2.220446049250313e-16 1.706211181640625 0.06899999999999973 Q 1.8299611816406252 0.1379999999999998 1.901961181640625 0.2617499999999998 Q 1.973961181640625 0.38549999999999984 1.973961181640625 0.5414999999999999 Q 1.973961181640625 0.6974999999999998 1.901961181640625 0.8212499999999998 Q 1.8299611816406252 0.9449999999999998 1.7054611816406249 1.0147499999999998 Q 1.580961181640625 1.0844999999999998 1.432461181640625 1.0844999999999998 Q 1.283961181640625 1.0844999999999998 1.159461181640625 1.0147499999999998 M 1.610211181640625 0.7379999999999998 Q 1.675461181640625 0.6644999999999999 1.675461181640625 0.5414999999999999 Q 1.675461181640625 0.41549999999999987 1.610211181640625 0.3427499999999998 Q 1.544961181640625 0.2699999999999998 1.432461181640625 0.2699999999999998 Q 1.318461181640625 0.2699999999999998 1.253961181640625 0.3427499999999998 Q 1.189461181640625 0.41549999999999987 1.189461181640625 0.5414999999999999 Q 1.189461181640625 0.6659999999999998 1.253961181640625 0.7387499999999998 Q 1.318461181640625 0.8114999999999999 1.432461181640625 0.8114999999999999 Q 1.544961181640625 0.8114999999999999 1.610211181640625 0.7379999999999998 M 2.399942138671875 0.8489999999999999 L 2.728442138671875 0.8489999999999999 L 2.728442138671875 1.0739999999999998 L 2.105942138671875 1.0739999999999998 L 2.105942138671875 0.016499999999999737 L 2.399942138671875 0.016499999999999737 L 2.399942138671875 0.8489999999999999 M 3.13648388671875 0.016499999999999737 L 3.13648388671875 1.0739999999999998 L 2.84248388671875 1.0739999999999998 L 2.84248388671875 0.016499999999999737 L 3.13648388671875 0.016499999999999737 M 3.973458984375 0.9014999999999999 L 3.598458984375 0.9014999999999999 L 3.541458984375 1.0739999999999998 L 3.232458984375 1.0739999999999998 L 3.617958984375 0.016499999999999737 L 3.956958984375 0.016499999999999737 L 4.340958984375 1.0739999999999998 L 4.0304589843750005 1.0739999999999998 L 3.973458984375 0.9014999999999999 M 3.899958984375 0.6764999999999999 L 3.785958984375 0.3344999999999998 L 3.673458984375 0.6764999999999999 L 3.899958984375 0.6764999999999999 M 5.11196630859375 0.3644999999999998 Q 5.08646630859375 0.3224999999999998 5.04221630859375 0.2999999999999998 Q 4.99796630859375 0.27749999999999986 4.93796630859375 0.27749999999999986 Q 4.82696630859375 0.27749999999999986 4.76321630859375 0.3494999999999998 Q 4.69946630859375 0.4214999999999999 4.69946630859375 0.5429999999999998 Q 4.69946630859375 0.6794999999999998 4.76771630859375 0.7507499999999998 Q 4.83596630859375 0.8219999999999998 4.96646630859375 0.8219999999999998 Q 5.12096630859375 0.8219999999999998 5.18696630859375 0.6824999999999999 L 4.89146630859375 0.6824999999999999 L 4.89146630859375 0.47099999999999986 L 5.44046630859375 0.47099999999999986 L 5.44046630859375 0.7559999999999998 Q 5.40596630859375 0.8399999999999999 5.33921630859375 0.9134999999999999 Q 5.27246630859375 0.9869999999999999 5.17046630859375 1.03425 Q 5.0684663085937505 1.0815 4.93796630859375 1.0815 Q 4.77896630859375 1.0815 4.65671630859375 1.0132499999999998 Q 4.53446630859375 0.9449999999999998 4.46771630859375 0.8227499999999999 Q 4.40096630859375 0.7004999999999999 4.40096630859375 0.5429999999999998 Q 4.40096630859375 0.3869999999999998 4.46771630859375 0.2647499999999998 Q 4.53446630859375 0.14249999999999985 4.65596630859375 0.07424999999999982 Q 4.77746630859375 0.005999999999999783 4.93646630859375 0.005999999999999783 Q 5.13596630859375 0.005999999999999783 5.26646630859375 0.10199999999999987 Q 5.3969663085937505 0.19799999999999984 5.42846630859375 0.3644999999999998 L 5.11196630859375 0.3644999999999998 M 5.866494873046875 0.2519999999999998 L 5.866494873046875 0.4244999999999999 L 6.2039948730468755 0.4244999999999999 L 6.2039948730468755 0.6479999999999999 L 5.866494873046875 0.6479999999999999 L 5.866494873046875 0.8384999999999998 L 6.248994873046875 0.8384999999999998 L 6.248994873046875 1.0739999999999998 L 5.572494873046875 1.0739999999999998 L 5.572494873046875 0.016499999999999737 L 6.248994873046875 0.016499999999999737 L 6.248994873046875 0.2519999999999998 L 5.866494873046875 0.2519999999999998" fill="#ebebeb" fill-rule="nonzero"></path></g><g><path d=" M 0.1335 1.9472249999999998 Q 0.08775000000000001 1.9284749999999997 0.060375 1.8917249999999999 Q 0.033 1.8549749999999998 0.0315 1.8032249999999999 L 0.168 1.8032249999999999 Q 0.171 1.8324749999999999 0.18825 1.8478499999999998 Q 0.20550000000000002 1.863225 0.23325 1.863225 Q 0.26175 1.863225 0.27825 1.8500999999999999 Q 0.29475 1.8369749999999998 0.29475 1.8137249999999998 Q 0.29475 1.7942249999999997 0.281625 1.781475 Q 0.2685 1.7687249999999999 0.249375 1.7604749999999998 Q 0.23025 1.752225 0.195 1.7417249999999997 Q 0.14400000000000002 1.7259749999999998 0.11175 1.7102249999999999 Q 0.0795 1.6944749999999997 0.05625 1.663725 Q 0.033 1.6329749999999998 0.033 1.5834749999999997 Q 0.033 1.5099749999999998 0.08625000000000001 1.4683499999999998 Q 0.1395 1.4267249999999998 0.225 1.4267249999999998 Q 0.312 1.4267249999999998 0.36525 1.4683499999999998 Q 0.4185 1.5099749999999998 0.42225 1.5842249999999998 L 0.28350000000000003 1.5842249999999998 Q 0.28200000000000003 1.558725 0.26475 1.5440999999999998 Q 0.2475 1.5294749999999997 0.2205 1.5294749999999997 Q 0.19725 1.5294749999999997 0.183 1.5418499999999997 Q 0.16875 1.5542249999999997 0.16875 1.5774749999999997 Q 0.16875 1.6029749999999998 0.19275 1.617225 Q 0.21675 1.6314749999999998 0.26775 1.6479749999999997 Q 0.31875000000000003 1.665225 0.350625 1.6809749999999999 Q 0.3825 1.6967249999999998 0.40575 1.7267249999999998 Q 0.429 1.7567249999999999 0.429 1.8039749999999999 Q 0.429 1.8489749999999998 0.406125 1.8857249999999999 Q 0.38325000000000004 1.922475 0.33975 1.9442249999999999 Q 0.29625 1.9659749999999998 0.23700000000000002 1.9659749999999998 Q 0.17925 1.9659749999999998 0.1335 1.9472249999999998 M 0.62174267578125 1.9314749999999998 Q 0.55986767578125 1.8969749999999999 0.5234926757812499 1.8350999999999997 Q 0.4871176757812499 1.7732249999999998 0.4871176757812499 1.6959749999999998 Q 0.4871176757812499 1.6187249999999997 0.5234926757812499 1.5572249999999999 Q 0.55986767578125 1.4957249999999997 0.62174267578125 1.4612249999999998 Q 0.68361767578125 1.4267249999999998 0.7578676757812499 1.4267249999999998 Q 0.83211767578125 1.4267249999999998 0.89399267578125 1.4612249999999998 Q 0.9558676757812499 1.4957249999999997 0.9914926757812499 1.5572249999999999 Q 1.02711767578125 1.6187249999999997 1.02711767578125 1.6959749999999998 Q 1.02711767578125 1.7732249999999998 0.99111767578125 1.8350999999999997 Q 0.95511767578125 1.8969749999999999 0.89361767578125 1.9314749999999998 Q 0.83211767578125 1.9659749999999998 0.7578676757812499 1.9659749999999998 Q 0.68361767578125 1.9659749999999998 0.62174267578125 1.9314749999999998 M 0.85874267578125 1.8069749999999998 Q 0.89661767578125 1.7649749999999997 0.89661767578125 1.6959749999999998 Q 0.89661767578125 1.6262249999999998 0.85874267578125 1.5845999999999998 Q 0.8208676757812499 1.5429749999999998 0.7578676757812499 1.5429749999999998 Q 0.6941176757812499 1.5429749999999998 0.65624267578125 1.5842249999999998 Q 0.61836767578125 1.6254749999999998 0.61836767578125 1.6959749999999998 Q 0.61836767578125 1.7657249999999998 0.65624267578125 1.8073499999999998 Q 0.6941176757812499 1.8489749999999998 0.7578676757812499 1.8489749999999998 Q 0.8208676757812499 1.8489749999999998 0.85874267578125 1.8069749999999998 M 1.4422507324218747 1.4342249999999999 L 1.4422507324218747 1.5369749999999998 L 1.2277507324218748 1.5369749999999998 L 1.2277507324218748 1.6479749999999997 L 1.388250732421875 1.6479749999999997 L 1.388250732421875 1.7477249999999998 L 1.2277507324218748 1.7477249999999998 L 1.2277507324218748 1.9607249999999998 L 1.0995007324218748 1.9607249999999998 L 1.0995007324218748 1.4342249999999999 L 1.4422507324218747 1.4342249999999999 M 1.8896235351562498 1.4342249999999999 L 1.8896235351562498 1.5369749999999998 L 1.7501235351562496 1.5369749999999998 L 1.7501235351562496 1.9607249999999998 L 1.6218735351562497 1.9607249999999998 L 1.6218735351562497 1.5369749999999998 L 1.4823735351562497 1.5369749999999998 L 1.4823735351562497 1.4342249999999999 L 1.8896235351562498 1.4342249999999999 M 2.679751098632812 1.4342249999999999 L 2.5425010986328123 1.9607249999999998 L 2.387251098632812 1.9607249999999998 L 2.303251098632812 1.6142249999999998 L 2.2162510986328123 1.9607249999999998 L 2.0610010986328122 1.9607249999999998 L 1.9275010986328123 1.4342249999999999 L 2.0647510986328124 1.4342249999999999 L 2.140501098632812 1.8174749999999997 L 2.234251098632812 1.4342249999999999 L 2.375251098632812 1.4342249999999999 L 2.4652510986328124 1.8174749999999997 L 2.5417510986328122 1.4342249999999999 L 2.679751098632812 1.4342249999999999 M 3.0731275634765622 1.8677249999999999 L 2.8766275634765623 1.8677249999999999 L 2.845127563476562 1.9607249999999998 L 2.7108775634765623 1.9607249999999998 L 2.9013775634765624 1.4342249999999999 L 3.0498775634765622 1.4342249999999999 L 3.2403775634765624 1.9607249999999998 L 3.104627563476562 1.9607249999999998 L 3.0731275634765622 1.8677249999999999 M 3.0401275634765623 1.7687249999999999 L 2.9748775634765625 1.575975 L 2.9103775634765623 1.7687249999999999 L 3.0401275634765623 1.7687249999999999 M 3.5677521972656248 1.9607249999999998 L 3.458252197265625 1.7619749999999998 L 3.4275021972656248 1.7619749999999998 L 3.4275021972656248 1.9607249999999998 L 3.299252197265625 1.9607249999999998 L 3.299252197265625 1.4342249999999999 L 3.514502197265625 1.4342249999999999 Q 3.5767521972656247 1.4342249999999999 3.620627197265625 1.4559749999999998 Q 3.664502197265625 1.477725 3.686252197265625 1.5155999999999998 Q 3.7080021972656247 1.5534749999999997 3.7080021972656247 1.5999749999999997 Q 3.7080021972656247 1.652475 3.678377197265625 1.6937249999999997 Q 3.6487521972656247 1.734975 3.5910021972656248 1.752225 L 3.712502197265625 1.9607249999999998 L 3.5677521972656248 1.9607249999999998 M 3.4275021972656248 1.6712249999999997 L 3.5070021972656247 1.6712249999999997 Q 3.5422521972656247 1.6712249999999997 3.559877197265625 1.6539749999999998 Q 3.5775021972656247 1.6367249999999998 3.5775021972656247 1.605225 Q 3.5775021972656247 1.5752249999999999 3.559877197265625 1.5579749999999999 Q 3.5422521972656247 1.540725 3.5070021972656247 1.540725 L 3.4275021972656248 1.540725 L 3.4275021972656248 1.6712249999999997 M 3.9176103515625 1.5369749999999998 L 3.9176103515625 1.6434749999999998 L 4.0893603515625 1.6434749999999998 L 4.0893603515625 1.7424749999999998 L 3.9176103515625 1.7424749999999998 L 3.9176103515625 1.8579749999999997 L 4.1118603515625 1.8579749999999997 L 4.1118603515625 1.9607249999999998 L 3.7893603515625 1.9607249999999998 L 3.7893603515625 1.4342249999999999 L 4.1118603515625 1.4342249999999999 L 4.1118603515625 1.5369749999999998 L 3.9176103515625 1.5369749999999998 M 4.443353393554687 1.9472249999999998 Q 4.397603393554687 1.9284749999999997 4.370228393554687 1.8917249999999999 Q 4.342853393554687 1.8549749999999998 4.341353393554687 1.8032249999999999 L 4.477853393554687 1.8032249999999999 Q 4.480853393554687 1.8324749999999999 4.498103393554687 1.8478499999999998 Q 4.515353393554687 1.863225 4.543103393554687 1.863225 Q 4.571603393554687 1.863225 4.588103393554687 1.8500999999999999 Q 4.604603393554687 1.8369749999999998 4.604603393554687 1.8137249999999998 Q 4.604603393554687 1.7942249999999997 4.591478393554687 1.781475 Q 4.578353393554687 1.7687249999999999 4.559228393554687 1.7604749999999998 Q 4.540103393554687 1.752225 4.504853393554687 1.7417249999999997 Q 4.453853393554687 1.7259749999999998 4.421603393554687 1.7102249999999999 Q 4.389353393554687 1.6944749999999997 4.366103393554687 1.663725 Q 4.342853393554687 1.6329749999999998 4.342853393554687 1.5834749999999997 Q 4.342853393554687 1.5099749999999998 4.396103393554687 1.4683499999999998 Q 4.449353393554687 1.4267249999999998 4.534853393554687 1.4267249999999998 Q 4.621853393554687 1.4267249999999998 4.675103393554687 1.4683499999999998 Q 4.728353393554687 1.5099749999999998 4.732103393554687 1.5842249999999998 L 4.593353393554687 1.5842249999999998 Q 4.591853393554687 1.558725 4.574603393554687 1.5440999999999998 Q 4.557353393554687 1.5294749999999997 4.530353393554687 1.5294749999999997 Q 4.507103393554687 1.5294749999999997 4.492853393554687 1.5418499999999997 Q 4.478603393554687 1.5542249999999997 4.478603393554687 1.5774749999999997 Q 4.478603393554687 1.6029749999999998 4.502603393554687 1.617225 Q 4.526603393554687 1.6314749999999998 4.577603393554687 1.6479749999999997 Q 4.628603393554687 1.665225 4.660478393554687 1.6809749999999999 Q 4.692353393554687 1.6967249999999998 4.715603393554687 1.7267249999999998 Q 4.738853393554687 1.7567249999999999 4.738853393554687 1.8039749999999999 Q 4.738853393554687 1.8489749999999998 4.715978393554687 1.8857249999999999 Q 4.693103393554687 1.922475 4.6496033935546865 1.9442249999999999 Q 4.606103393554687 1.9659749999999998 4.546853393554687 1.9659749999999998 Q 4.489103393554687 1.9659749999999998 4.443353393554687 1.9472249999999998 M 5.197471069335937 1.4342249999999999 L 5.197471069335937 1.5369749999999998 L 5.057971069335937 1.5369749999999998 L 5.057971069335937 1.9607249999999998 L 4.929721069335937 1.9607249999999998 L 4.929721069335937 1.5369749999999998 L 4.790221069335937 1.5369749999999998 L 4.790221069335937 1.4342249999999999 L 5.197471069335937 1.4342249999999999 M 5.3890986328125 1.4342249999999999 L 5.3890986328125 1.7492249999999998 Q 5.3890986328125 1.7964749999999998 5.4123486328125 1.821975 Q 5.4355986328125 1.8474749999999998 5.4805986328125 1.8474749999999998 Q 5.5255986328125 1.8474749999999998 5.5495986328125 1.821975 Q 5.5735986328125 1.7964749999999998 5.5735986328125 1.7492249999999998 L 5.5735986328125 1.4342249999999999 L 5.701848632812499 1.4342249999999999 L 5.701848632812499 1.7484749999999998 Q 5.701848632812499 1.8189749999999998 5.6718486328125 1.8677249999999999 Q 5.6418486328125 1.916475 5.5912236328125 1.9412249999999998 Q 5.540598632812499 1.9659749999999998 5.4783486328125 1.9659749999999998 Q 5.416098632812499 1.9659749999999998 5.3669736328125 1.9415999999999998 Q 5.3178486328125 1.9172249999999997 5.2893486328125 1.8680999999999999 Q 5.2608486328124995 1.8189749999999998 5.2608486328124995 1.7484749999999998 L 5.2608486328124995 1.4342249999999999 L 5.3890986328125 1.4342249999999999 M 6.135736450195312 1.4672249999999998 Q 6.197986450195312 1.500225 6.232111450195312 1.55985 Q 6.266236450195312 1.6194749999999998 6.266236450195312 1.6974749999999998 Q 6.266236450195312 1.7747249999999999 6.232111450195312 1.8347249999999997 Q 6.197986450195312 1.8947249999999998 6.135361450195312 1.927725 Q 6.072736450195312 1.9607249999999998 5.9902364501953125 1.9607249999999998 L 5.792986450195312 1.9607249999999998 L 5.792986450195312 1.4342249999999999 L 5.9902364501953125 1.4342249999999999 Q 6.073486450195312 1.4342249999999999 6.135736450195312 1.4672249999999998 M 6.095236450195312 1.809975 Q 6.135736450195312 1.770225 6.135736450195312 1.6974749999999998 Q 6.135736450195312 1.6247249999999998 6.095236450195312 1.5842249999999998 Q 6.054736450195312 1.5437249999999998 5.981986450195312 1.5437249999999998 L 5.9212364501953125 1.5437249999999998 L 5.9212364501953125 1.8497249999999998 L 5.981986450195312 1.8497249999999998 Q 6.054736450195312 1.8497249999999998 6.095236450195312 1.809975 M 6.467603759765625 1.4342249999999999 L 6.467603759765625 1.9607249999999998 L 6.339353759765625 1.9607249999999998 L 6.339353759765625 1.4342249999999999 L 6.467603759765625 1.4342249999999999 M 6.674590942382812 1.9314749999999998 Q 6.612715942382812 1.8969749999999999 6.576340942382812 1.8350999999999997 Q 6.539965942382812 1.7732249999999998 6.539965942382812 1.6959749999999998 Q 6.539965942382812 1.6187249999999997 6.576340942382812 1.5572249999999999 Q 6.612715942382812 1.4957249999999997 6.674590942382812 1.4612249999999998 Q 6.736465942382813 1.4267249999999998 6.810715942382812 1.4267249999999998 Q 6.884965942382812 1.4267249999999998 6.946840942382813 1.4612249999999998 Q 7.008715942382812 1.4957249999999997 7.044340942382812 1.5572249999999999 Q 7.079965942382812 1.6187249999999997 7.079965942382812 1.6959749999999998 Q 7.079965942382812 1.7732249999999998 7.043965942382812 1.8350999999999997 Q 7.007965942382812 1.8969749999999999 6.946465942382813 1.9314749999999998 Q 6.884965942382812 1.9659749999999998 6.810715942382812 1.9659749999999998 Q 6.736465942382813 1.9659749999999998 6.674590942382812 1.9314749999999998 M 6.911590942382812 1.8069749999999998 Q 6.949465942382812 1.7649749999999997 6.949465942382812 1.6959749999999998 Q 6.949465942382812 1.6262249999999998 6.911590942382812 1.5845999999999998 Q 6.8737159423828125 1.5429749999999998 6.810715942382812 1.5429749999999998 Q 6.746965942382812 1.5429749999999998 6.7090909423828125 1.5842249999999998 Q 6.671215942382812 1.6254749999999998 6.671215942382812 1.6959749999999998 Q 6.671215942382812 1.7657249999999998 6.7090909423828125 1.8073499999999998 Q 6.746965942382812 1.8489749999999998 6.810715942382812 1.8489749999999998 Q 6.8737159423828125 1.8489749999999998 6.911590942382812 1.8069749999999998" fill="#ebebeb" fill-rule="nonzero"></path></g></g><defs><clipPath id="SvgjsClipPath40998"><path d=" M -2.784035198960787 -0.21165509948039374 h 2.3840351989607873 v 2.3840351989607873 h -2.3840351989607873 Z"></path></clipPath><clipPath id="SvgjsClipPath409965cfc236d-367b-49a9-b15f-bd74f3df0afe"><path d=" M -2.784035198960787 -0.21165509948039374 L -0.3999999999999999 -0.21165509948039374 L -0.3999999999999999 2.1723800994803937 L -2.784035198960787 2.1723800994803937 Z"></path></clipPath></defs></svg>