<?xml version="1.0" encoding="UTF-8"?>
<svg xmlns="http://www.w3.org/2000/svg" version="1.1" xmlns:xlink="http://www.w3.org/1999/xlink" viewBox="0 0 7.4 1.8">
  <defs>
    <style>
      .cls-1 {
        fill: none;
      }

      .cls-2 {
        clip-path: url(#clippath-1);
      }

      .cls-3 {
        fill-rule: evenodd;
      }

      .cls-3, .cls-4 {
        fill: #ebebeb;
      }

      .cls-5 {
        clip-path: url(#clippath);
      }
    </style>
    <clipPath id="clippath">
      <rect class="cls-1" x="0" y="0" width="1.8" height="1.8"/>
    </clipPath>
    <clipPath id="clippath-1">
      <rect class="cls-1" x="0" y="0" width="1.8" height="1.8"/>
    </clipPath>
  </defs>
  <!-- Generator: Adobe Illustrator 28.6.0, SVG Export Plug-In . SVG Version: 1.2.0 Build 709)  -->
  <g>
    <g id="_图层_1" data-name="图层_1">
      <g>
        <g class="cls-5">
          <g class="cls-2">
            <path class="cls-3" d="M.2,0h1.4c.1,0,.2,0,.2.2v1.4c0,.1,0,.2-.2.2H.2c-.1,0-.2,0-.2-.2V.2C0,0,0,0,.2,0ZM.2,1h.2c.2.2.1.5,0,.4h-.1c-.1-.1-.2,0,0,0,.1,0,.3,0,.4,0l.2-.3c0-.2.3-.1.2,0l-.2.3c0,.1.1.2.2,0v-.2c.2-.2.5-.1.4,0h0c0,.2.1.3.2.2,0-.1,0-.3,0-.4l-.3-.2c-.2,0-.1-.3,0-.2l.3.2c.1,0,.2-.1,0-.2h-.2c-.2-.2-.1-.5,0-.4h.1c.1.1.2,0,0,0-.1,0-.3,0-.4,0l-.2.3c0,.2-.3.1-.2,0l.2-.3c0-.1-.1-.2-.2,0v.2c-.2.2-.5.1-.4,0h0c0-.2-.1-.3-.2-.2,0,.1,0,.3,0,.4l.3.2c.2,0,.1.3,0,.2l-.3-.2c-.1,0-.2.1,0,.2Z"/>
          </g>
        </g>
        <path class="cls-4" d="M2.7.2v.2h-.3c0,.1.2.1.2.1v.2h-.2v.3h-.2V.2h.5M2.9.9c0,0-.1,0-.1-.1,0,0,0-.1,0-.2,0,0,0-.1,0-.2,0,0,0-.1.1-.1,0,0,.1,0,.2,0s.1,0,.2,0c0,0,.1,0,.1.1,0,0,0,.1,0,.2s0,.1,0,.2c0,0,0,.1-.1.1,0,0-.1,0-.2,0s-.1,0-.2,0M3.3.7s0,0,0-.1,0-.1,0-.1c0,0,0,0-.1,0s-.1,0-.1,0c0,0,0,0,0,.1s0,.1,0,.1c0,0,0,0,.1,0s.1,0,.1,0M3.9.8h.2v.2h-.5V.2h.2v.6M4.4.2v.8h-.2V.2h.2M5,.8h-.3c0,.1-.2.1-.2.1l.3-.8h.3l.3.8h-.3M5,.7v-.3c0,0-.2.3-.2.3h.2M5.9.4s0,0,0,0c0,0,0,0,0,0,0,0,0,0-.1,0,0,0,0,0,0,.1s0,.1,0,.2c0,0,0,0,.1,0s.1,0,.2-.1h-.2v-.2h.4v.2s0,0,0,.1c0,0,0,0-.1,0,0,0-.1,0-.2,0s-.1,0-.2,0c0,0-.1,0-.1-.1,0,0,0-.1,0-.2s0-.1,0-.2c0,0,0-.1.1-.1,0,0,.1,0,.2,0,0,0,.2,0,.2,0,0,0,.1.1.1.2h-.2M6.5.3h0c0,.1.3.1.3.1v.2h-.3c0,.1.3.1.3.1v.2h-.5V.2h.5v.2h-.3"/>
        <path class="cls-4" d="M2.2,1.6s0,0,0,0c0,0,0,0,0,0h.1s0,0,0,0c0,0,0,0,0,0s0,0,0,0c0,0,0,0,0,0s0,0,0,0c0,0,0,0,0,0,0,0,0,0,0,0,0,0,0,0,0,0,0,0,0,0,0,0,0,0,0,0,0,0,0,0,0,0,0,0,0,0,0,0,.1,0s0,0,.1,0c0,0,0,0,0,0h-.1s0,0,0,0,0,0,0,0c0,0,0,0,0,0s0,0,0,0,0,0,0,0,0,0,0,0c0,0,0,0,0,0s0,0,0,0c0,0,0,0,0,0s0,0,0,0c0,0,0,0,0,0,0,0,0,0,0,0,0,0,0,0,0,0M2.5,1.6s0,0,0,0c0,0,0,0,0-.1s0,0,0-.1c0,0,0,0,0,0s0,0,.1,0,0,0,.1,0,0,0,0,0,0,0,0,.1,0,0,0,.1c0,0,0,0,0,0s0,0-.1,0c0,0,0,0-.1,0M2.7,1.5s0,0,0,0,0,0,0,0c0,0,0,0,0,0s0,0,0,0c0,0,0,0,0,0s0,0,0,0c0,0,0,0,0,0,0,0,0,0,0,0M3.2,1.2h0c0,0-.2,0-.2,0h0c0,0,.1,0,.1,0h0c0,0-.1,0-.1,0v.2h0v-.4h.3M3.5,1.2h0c0,0-.1,0-.1,0v.3h0v-.3h-.1c0,0,.3,0,.3,0M4.1,1.2v.4h-.2v-.3c0,0-.1.3-.1.3h-.1v-.4c0,0,0,0,0,0v.3c0,0,.1-.3.1-.3h.1v.3c0,0,.1-.3.1-.3h.1M4.4,1.6h-.2c0,0-.1,0-.1,0v-.4h.3v.4c.1,0,0,0,0,0h0M4.3,1.5h0c0-.1,0,0,0,0h0M4.7,1.6h0c0-.1,0-.1,0-.1h0c0,.1,0,.1,0,.1v-.4h.2s0,0,0,0c0,0,0,0,0,0,0,0,0,0,0,0s0,0,0,0c0,0,0,0,0,0v.2c0,0,0,0,0,0M4.6,1.4h0s0,0,0,0c0,0,0,0,0,0s0,0,0,0c0,0,0,0,0,0h0M5,1.3h0c0,0,.1,0,.1,0h0c0,0-.1,0-.1,0h0c0,0,.1,0,.1,0h0c0,0-.2,0-.2,0v-.4h.2c0,0-.1,0-.1,0M5.4,1.6s0,0,0,0c0,0,0,0,0,0h.1s0,0,0,0c0,0,0,0,0,0s0,0,0,0c0,0,0,0,0,0s0,0,0,0c0,0,0,0,0,0,0,0,0,0,0,0,0,0,0,0,0,0,0,0,0,0,0,0,0,0,0,0,0,0,0,0,0,0,0,0,0,0,0,0,.1,0s0,0,.1,0c0,0,0,0,0,0h-.1s0,0,0,0c0,0,0,0,0,0,0,0,0,0,0,0s0,0,0,0,0,0,0,0c0,0,0,0,0,0,0,0,0,0,0,0,0,0,0,0,0,0s0,0,0,0,0,0,0,0c0,0,0,0,0,0,0,0,0,0,0,0,0,0,0,0,0,0M6,1.2h0c0,0-.1,0-.1,0v.3h0v-.3h-.1c0,0,.3,0,.3,0M6.1,1.2v.2s0,0,0,0,0,0,0,0,0,0,0,0,0,0,0,0v-.2h0v.2s0,0,0,0c0,0,0,0,0,0,0,0,0,0,0,0,0,0,0,0,0,0,0,0,0,0,0,0,0,0,0,0,0,0v-.2h0M6.7,1.3s0,0,0,0,0,0,0,.1c0,0,0,0,0,.1,0,0,0,0,0,0,0,0,0,0-.1,0h-.1v-.4h.1s0,0,.1,0M6.6,1.5s0,0,0,0,0,0,0,0c0,0,0,0,0,0h0v.2h0s0,0,0,0M6.9,1.2v.4h0v-.4h0M7.1,1.6s0,0,0,0c0,0,0,0,0-.1s0,0,0-.1,0,0,0,0c0,0,0,0,.1,0s0,0,.1,0,0,0,0,0,0,0,0,.1,0,0,0,.1c0,0,0,0,0,0,0,0,0,0-.1,0,0,0,0,0-.1,0M7.2,1.5s0,0,0,0c0,0,0,0,0,0,0,0,0,0,0,0s0,0,0,0c0,0,0,0,0,0,0,0,0,0,0,0,0,0,0,0,0,0,0,0,0,0,0,0"/>
      </g>
    </g>
  </g>
</svg>