<svg width="131" height="32" viewBox="0 0 131 32" fill="none" xmlns="http://www.w3.org/2000/svg">
<mask id="mask0_10_22" style="mask-type:luminance" maskUnits="userSpaceOnUse" x="0" y="0" width="32" height="32">
<path d="M0.100544 0.233261H31.6343V31.767H0.100544V0.233261Z" fill="white"/>
</mask>
<g mask="url(#mask0_10_22)">
<mask id="mask1_10_22" style="mask-type:luminance" maskUnits="userSpaceOnUse" x="0" y="0" width="32" height="32">
<path d="M0.100544 0.233261H31.6343V31.767H0.100544V0.233261Z" fill="white"/>
</mask>
<g mask="url(#mask1_10_22)">
<path fill-rule="evenodd" clip-rule="evenodd" d="M3.64736 0.233261H28.0847C30.0412 0.238854 31.6259 1.82354 31.6315 3.78007V28.2174C31.6259 30.174 30.0412 31.7587 28.0847 31.7643H3.64736C1.69098 31.7583 0.106507 30.1738 0.100544 28.2174V3.78007C0.106507 1.8237 1.69098 0.239225 3.64736 0.233261ZM4.11167 18.0474L8.52397 20.4097C11.6397 22.0796 10.3771 26.4512 7.26205 24.7826L4.98055 23.5608C2.84771 22.4176 1.98154 25.4044 4.10624 26.5537C6.60631 27.878 9.57002 27.3737 10.9786 24.8261L13.6762 19.792C15.3433 16.6803 19.7176 17.9347 18.0484 21.0539L14.9184 26.8917C13.778 29.0273 16.7757 29.8867 17.9181 27.7531L20.2811 23.3449C21.9509 20.2291 26.3225 21.4911 24.6533 24.6068L23.4314 26.8883C22.2883 29.0212 25.2758 29.8873 26.4243 27.7626C27.7487 25.2626 27.245 22.2988 24.6974 20.8896L19.6633 18.192C16.5516 16.5248 17.8061 12.1506 20.9252 13.8198L26.7631 16.9498C28.8986 18.0909 29.758 15.0932 27.6252 13.9501L23.2163 11.5871C20.1005 9.91793 21.3631 5.54567 24.4782 7.21556L26.7597 8.43743C28.8925 9.58123 29.7587 6.59309 27.634 5.44521C25.1339 4.12016 22.1702 4.62452 20.7617 7.17212L18.064 12.2062C16.3969 15.3179 12.0226 14.0635 13.6918 10.9443L16.8218 5.10648C17.9622 2.97093 14.9646 2.11154 13.8221 4.24506L11.4592 8.65329C9.78928 11.7691 5.41771 10.5071 7.08691 7.39137L8.30878 5.11055C9.45191 2.97703 6.46444 2.11087 5.31589 4.23556C3.99152 6.73564 4.4952 9.69935 7.04279 11.1086L12.0769 13.8062C15.1886 15.4734 13.9341 19.8476 10.815 18.1784L4.97715 15.0484C2.83821 13.9066 1.97883 16.9043 4.11167 18.0474Z" fill="white"/>
</g>
</g>
<path d="M47.5199 3.25108V6.3462H41.9249V8.80643H46.0517V11.7627H41.9249V17.2387H38.0361V3.25108H47.5199ZM52.2613 16.455C51.1634 15.8399 50.2938 14.9868 49.6523 13.8955C49.0107 12.8043 48.69 11.5709 48.69 10.1953C48.69 8.81966 49.0107 7.58624 49.6523 6.49501C50.2938 5.40378 51.1634 4.55394 52.2613 3.9455C53.3591 3.33705 54.5628 3.03283 55.8723 3.03283C57.195 3.03283 58.4019 3.33705 59.4932 3.9455C60.5844 4.55394 61.4475 5.40378 62.0824 6.49501C62.7173 7.58624 63.0347 8.81966 63.0347 10.1953C63.0347 11.5709 62.7173 12.8043 62.0824 13.8955C61.4475 14.9868 60.5811 15.8399 59.4832 16.455C58.3854 17.07 57.1817 17.3775 55.8723 17.3775C54.5628 17.3775 53.3591 17.07 52.2613 16.455ZM58.2234 12.7944C58.7987 12.1463 59.0864 11.2799 59.0864 10.1953C59.0864 9.0842 58.7987 8.20791 58.2234 7.5664C57.648 6.92488 56.8643 6.60413 55.8723 6.60413C54.867 6.60413 54.08 6.92488 53.5112 7.5664C52.9425 8.20791 52.6581 9.0842 52.6581 10.1953C52.6581 11.2931 52.9425 12.1628 53.5112 12.8043C54.08 13.4458 54.867 13.7666 55.8723 13.7666C56.8643 13.7666 57.648 13.4425 58.2234 12.7944ZM68.6692 14.2626H73.0142V17.2387H64.7804V3.25108H68.6692V14.2626ZM78.4114 3.25108V17.2387H74.5227V3.25108H78.4114ZM89.4821 14.957H84.522L83.768 17.2387H79.6809L84.7799 3.25108H89.2639L94.3431 17.2387H90.2361L89.4821 14.957ZM88.5099 11.9809L87.0021 7.45727L85.514 11.9809H88.5099ZM104.541 7.85408C104.316 7.48373 104.009 7.19935 103.619 7.00094C103.228 6.80253 102.769 6.70333 102.24 6.70333C101.261 6.70333 100.49 7.02078 99.9283 7.65568C99.3661 8.29058 99.085 9.14372 99.085 10.2151C99.085 11.4188 99.386 12.3347 99.9878 12.963C100.59 13.5913 101.466 13.9054 102.617 13.9054C103.979 13.9054 104.951 13.2904 105.533 12.0603H101.625V9.26276H108.886V13.0325C108.582 13.7732 108.136 14.4676 107.547 15.1157C106.958 15.7638 106.214 16.2962 105.315 16.7129C104.416 17.1295 103.39 17.3379 102.24 17.3379C100.838 17.3379 99.5976 17.0369 98.5196 16.4351C97.4416 15.8333 96.6083 14.9934 96.0197 13.9154C95.4311 12.8374 95.1368 11.6039 95.1368 10.2151C95.1368 8.8395 95.4311 7.61269 96.0197 6.53469C96.6083 5.45668 97.4383 4.61677 98.5097 4.01494C99.5811 3.41311 100.818 3.11219 102.22 3.11219C103.979 3.11219 105.434 3.53546 106.585 4.38199C107.736 5.22852 108.45 6.38588 108.728 7.85408H104.541ZM114.521 6.36604V8.64771H118.985V11.6039H114.521V14.1237H119.581V17.2387H110.633V3.25108H119.581V6.36604H114.521Z" fill="white"/>
<path d="M38.6909 28.7888C38.2875 28.6235 37.965 28.3788 37.7237 28.0547C37.4823 27.7307 37.3549 27.3405 37.3417 26.8841H39.1472C39.1737 27.1421 39.2629 27.3388 39.4151 27.4744C39.5672 27.61 39.7656 27.6778 40.0103 27.6778C40.2616 27.6778 40.46 27.6199 40.6055 27.5042C40.751 27.3884 40.8237 27.228 40.8237 27.023C40.8237 26.8511 40.7659 26.7089 40.6501 26.5965C40.5344 26.484 40.3922 26.3914 40.2236 26.3187C40.0549 26.2459 39.8152 26.1633 39.5043 26.0707C39.0546 25.9318 38.6876 25.7929 38.4032 25.654C38.1188 25.5151 37.8741 25.3101 37.6691 25.039C37.4641 24.7678 37.3616 24.414 37.3616 23.9775C37.3616 23.3294 37.5963 22.8218 38.0659 22.4547C38.5355 22.0877 39.1472 21.9042 39.9012 21.9042C40.6683 21.9042 41.2867 22.0877 41.7562 22.4547C42.2258 22.8218 42.4771 23.3327 42.5102 23.9874H40.6749C40.6617 23.7626 40.579 23.5857 40.4269 23.4567C40.2748 23.3277 40.0797 23.2632 39.8416 23.2632C39.6366 23.2632 39.4713 23.3178 39.3456 23.4269C39.22 23.5361 39.1571 23.6931 39.1571 23.8981C39.1571 24.123 39.2629 24.2983 39.4746 24.4239C39.6862 24.5496 40.0169 24.6851 40.4666 24.8306C40.9163 24.9828 41.2817 25.1283 41.5628 25.2671C41.8439 25.406 42.0869 25.6077 42.2919 25.8723C42.497 26.1368 42.5995 26.4774 42.5995 26.8941C42.5995 27.2909 42.4986 27.6513 42.2969 27.9754C42.0952 28.2994 41.8025 28.5574 41.419 28.7492C41.0354 28.9409 40.5823 29.0368 40.0599 29.0368C39.5506 29.0368 39.0943 28.9542 38.6909 28.7888ZM45.1489 28.5805C44.6033 28.2763 44.1701 27.8514 43.8493 27.3058C43.5286 26.7601 43.3682 26.1467 43.3682 25.4655C43.3682 24.7844 43.5286 24.1726 43.8493 23.6303C44.1701 23.088 44.6033 22.6647 45.1489 22.3605C45.6945 22.0563 46.2947 21.9042 46.9494 21.9042C47.6041 21.9042 48.2043 22.0563 48.7499 22.3605C49.2956 22.6647 49.7254 23.088 50.0396 23.6303C50.3537 24.1726 50.5108 24.7844 50.5108 25.4655C50.5108 26.1467 50.3521 26.7601 50.0346 27.3058C49.7172 27.8514 49.2873 28.2763 48.745 28.5805C48.2027 28.8847 47.6041 29.0368 46.9494 29.0368C46.2947 29.0368 45.6945 28.8847 45.1489 28.5805ZM48.2837 26.9337C48.6177 26.5634 48.7847 26.074 48.7847 25.4655C48.7847 24.8505 48.6177 24.3594 48.2837 23.9924C47.9497 23.6253 47.5049 23.4418 46.9494 23.4418C46.3873 23.4418 45.9392 23.6237 45.6052 23.9874C45.2712 24.3512 45.1042 24.8439 45.1042 25.4655C45.1042 26.0806 45.2712 26.5717 45.6052 26.9387C45.9392 27.3058 46.3873 27.4893 46.9494 27.4893C47.5049 27.4893 47.9497 27.3041 48.2837 26.9337ZM56.0018 22.0034V23.3624H53.1646V24.8306H55.2875V26.15H53.1646V28.9674H51.4682V22.0034H56.0018ZM61.9192 22.0034V23.3624H60.074V28.9674H58.3776V23.3624H56.5325V22.0034H61.9192ZM72.3702 22.0034L70.5548 28.9674H68.5013L67.3902 24.3842L66.2395 28.9674H64.186L62.4202 22.0034H64.2356L65.2375 27.0726L66.4776 22.0034H68.3426L69.533 27.0726L70.5449 22.0034H72.3702ZM77.5734 27.7373H74.9743L74.5577 28.9674H72.7819L75.3017 22.0034H77.2659L79.7856 28.9674H77.9901L77.5734 27.7373ZM77.1369 26.4278L76.2739 23.8783L75.4207 26.4278H77.1369ZM84.1158 28.9674L82.6675 26.3385H82.2607V28.9674H80.5644V22.0034H83.4115C83.9604 22.0034 84.4283 22.0993 84.8152 22.2911C85.2021 22.4829 85.4914 22.7457 85.6832 23.0797C85.875 23.4137 85.9709 23.7857 85.9709 24.1957C85.9709 24.6587 85.8403 25.072 85.5791 25.4358C85.3178 25.7995 84.9326 26.0575 84.4234 26.2096L86.0304 28.9674H84.1158ZM82.2607 25.1382H83.3123C83.6231 25.1382 83.8562 25.0621 84.0117 24.91C84.1671 24.7579 84.2448 24.543 84.2448 24.2652C84.2448 24.0007 84.1671 23.7923 84.0117 23.6402C83.8562 23.4881 83.6231 23.412 83.3123 23.412H82.2607V25.1382ZM88.7434 23.3624V24.7711H91.0152V26.0806H88.7434V27.6083H91.3128V28.9674H87.047V22.0034H91.3128V23.3624H88.7434ZM95.6974 28.7888C95.294 28.6235 94.9716 28.3788 94.7302 28.0547C94.4888 27.7307 94.3615 27.3405 94.3483 26.8841H96.1538C96.1802 27.1421 96.2695 27.3388 96.4216 27.4744C96.5737 27.61 96.7721 27.6778 97.0168 27.6778C97.2681 27.6778 97.4665 27.6199 97.612 27.5042C97.7575 27.3884 97.8303 27.228 97.8303 27.023C97.8303 26.8511 97.7724 26.7089 97.6567 26.5965C97.541 26.484 97.3988 26.3914 97.2301 26.3187C97.0615 26.2459 96.8217 26.1633 96.5109 26.0707C96.0612 25.9318 95.6941 25.7929 95.4097 25.654C95.1254 25.5151 94.8807 25.3101 94.6756 25.039C94.4706 24.7678 94.3681 24.414 94.3681 23.9775C94.3681 23.3294 94.6029 22.8218 95.0725 22.4547C95.542 22.0877 96.1538 21.9042 96.9077 21.9042C97.6749 21.9042 98.2932 22.0877 98.7628 22.4547C99.2324 22.8218 99.4837 23.3327 99.5167 23.9874H97.6815C97.6683 23.7626 97.5856 23.5857 97.4335 23.4567C97.2814 23.3277 97.0863 23.2632 96.8482 23.2632C96.6432 23.2632 96.4778 23.3178 96.3522 23.4269C96.2265 23.5361 96.1637 23.6931 96.1637 23.8981C96.1637 24.123 96.2695 24.2983 96.4811 24.4239C96.6928 24.5496 97.0234 24.6851 97.4732 24.8306C97.9229 24.9828 98.2883 25.1283 98.5694 25.2671C98.8504 25.406 99.0935 25.6077 99.2985 25.8723C99.5035 26.1368 99.606 26.4774 99.606 26.8941C99.606 27.2909 99.5052 27.6513 99.3035 27.9754C99.1017 28.2994 98.8091 28.5574 98.4255 28.7492C98.0419 28.9409 97.5889 29.0368 97.0664 29.0368C96.5572 29.0368 96.1009 28.9542 95.6974 28.7888ZM105.672 22.0034V23.3624H103.827V28.9674H102.131V23.3624H100.285V22.0034H105.672ZM108.207 22.0034V26.1699C108.207 26.5865 108.309 26.9073 108.514 27.1321C108.719 27.357 109.02 27.4694 109.417 27.4694C109.814 27.4694 110.118 27.357 110.33 27.1321C110.541 26.9073 110.647 26.5865 110.647 26.1699V22.0034H112.344V26.16C112.344 26.7816 112.211 27.3074 111.947 27.7373C111.682 28.1672 111.327 28.4912 110.88 28.7095C110.434 28.9277 109.936 29.0368 109.387 29.0368C108.838 29.0368 108.347 28.9294 107.914 28.7144C107.481 28.4995 107.139 28.1754 106.887 27.7422C106.636 27.3091 106.51 26.7816 106.51 26.16V22.0034H108.207ZM118.083 22.4399C118.632 22.7309 119.056 23.1392 119.357 23.665C119.658 24.1908 119.809 24.7976 119.809 25.4854C119.809 26.1666 119.658 26.7717 119.357 27.3008C119.056 27.8299 118.63 28.2399 118.078 28.5309C117.525 28.8219 116.886 28.9674 116.158 28.9674H113.549V22.0034H116.158C116.892 22.0034 117.534 22.1489 118.083 22.4399ZM117.547 26.9734C117.904 26.6229 118.083 26.1269 118.083 25.4854C118.083 24.8439 117.904 24.3446 117.547 23.9874C117.19 23.6303 116.69 23.4517 116.049 23.4517H115.245V27.4992H116.049C116.69 27.4992 117.19 27.3239 117.547 26.9734ZM122.472 22.0034V28.9674H120.776V22.0034H122.472ZM125.21 28.5805C124.664 28.2763 124.231 27.8514 123.911 27.3058C123.59 26.7601 123.429 26.1467 123.429 25.4655C123.429 24.7844 123.59 24.1726 123.911 23.6303C124.231 23.088 124.664 22.6647 125.21 22.3605C125.756 22.0563 126.356 21.9042 127.011 21.9042C127.665 21.9042 128.266 22.0563 128.811 22.3605C129.357 22.6647 129.787 23.088 130.101 23.6303C130.415 24.1726 130.572 24.7844 130.572 25.4655C130.572 26.1467 130.413 26.7601 130.096 27.3058C129.778 27.8514 129.348 28.2763 128.806 28.5805C128.264 28.8847 127.665 29.0368 127.011 29.0368C126.356 29.0368 125.756 28.8847 125.21 28.5805ZM128.345 26.9337C128.679 26.5634 128.846 26.074 128.846 25.4655C128.846 24.8505 128.679 24.3594 128.345 23.9924C128.011 23.6253 127.566 23.4418 127.011 23.4418C126.448 23.4418 126 23.6237 125.666 23.9874C125.332 24.3512 125.165 24.8439 125.165 25.4655C125.165 26.0806 125.332 26.5717 125.666 26.9387C126 27.3058 126.448 27.4893 127.011 27.4893C127.566 27.4893 128.011 27.3041 128.345 26.9337Z" fill="white"/>
</svg>